#!OML:ASF H:\Pregnant\Project 1\Capture day 1\Session 1\femalepreg.ASF
:FULLY-SPECIFIED
:DEGREES
1429
root 5.08367 15.5821 22.4534 22.2896 -73.9245 -0.909815
lowerback -18.1207 -0.155343 -2.92728
upperback -6.22374 -0.0695271 1.57431
thorax 3.46278 -0.131745 3.31011
lowerneck -17.6432 7.89658 8.14725
upperneck 25.0522 9.14643 -2.11096
head 11.595 4.5771 -0.729194
rclavicle -4.28754e-014 -6.75868e-015
rhumerus -39.782 -5.02254 -72.5691
rradius 34.9411
rwrist -1.34993
rhand -12.2446 -14.5328
rfingers 7.12502
rthumb 13.8212 -44.0537
lclavicle -4.28754e-014 -6.75868e-015
lhumerus -40.7334 2.54377 79.5186
lradius 35.1127
lwrist 37.3874
lhand -21.2602 2.69902
lfingers 7.12502
lthumb 5.12314 32.6171
rfemur -38.3874 18.9292 14.5163
rtibia 37.5857
rfoot -17.0329 -25.3689
rtoes 0.696983
lfemur -23.6595 -13.4907 -18.3957
ltibia 13.8835
lfoot -6.59562 16.2967
ltoes -10.6511
1430
root 5.09038 15.5826 22.4509 22.3058 -73.9037 -0.910857
lowerback -18.0593 -0.140187 -2.94164
upperback -6.20879 -0.0457294 1.55561
thorax 3.44469 -0.119054 3.30294
lowerneck -17.5955 7.95522 8.2105
upperneck 24.9729 9.22515 -2.14837
head 11.5657 4.61512 -0.742418
rclavicle 5.24326e-014 3.97569e-016
rhumerus -39.7346 -4.87357 -72.7257
rradius 35.1553
rwrist -1.45456
rhand -12.1307 -14.4606
rfingers 7.12502
rthumb 13.9311 -43.9739
lclavicle 5.24326e-014 3.97569e-016
lhumerus -40.6585 2.48692 79.562
lradius 35.2726
lwrist 37.437
lhand -21.2464 2.70229
lfingers 7.12502
lthumb 5.13646 32.62
rfemur -38.428 18.9199 14.5084
rtibia 37.5771
rfoot -16.988 -25.3884
rtoes 0.629765
lfemur -23.7177 -13.5013 -18.3758
ltibia 13.8954
lfoot -6.57802 16.2913
ltoes -10.6408
1431
root 5.09693 15.583 22.4484 22.3279 -73.8846 -0.917424
lowerback -18.001 -0.123126 -2.95292
upperback -6.19303 -0.0197672 1.53422
thorax 3.42897 -0.105383 3.29158
lowerneck -17.5513 8.00791 8.26854
upperneck 24.8968 9.29543 -2.18159
head 11.5374 4.64931 -0.754528
rclavicle 2.43542e-014 -9.14409e-015
rhumerus -39.6921 -4.72492 -72.8835
rradius 35.3584
rwrist -1.55215
rhand -12.0266 -14.3996
rfingers 7.12502
rthumb 14.0314 -43.906
lclavicle 2.43542e-014 -9.14409e-015
lhumerus -40.5858 2.42534 79.602
lradius 35.4258
lwrist 37.4862
lhand -21.2276 2.70875
lfingers 7.12502
lthumb 5.15459 32.6261
rfemur -38.4685 18.9029 14.5068
rtibia 37.565
rfoot -16.9113 -25.4158
rtoes 0.458871
lfemur -23.7823 -13.5106 -18.355
ltibia 13.9203
lfoot -6.56688 16.2885
ltoes -10.6373
1432
root 5.10328 15.5832 22.4458 22.3571 -73.8684 -0.930902
lowerback -17.9456 -0.104556 -2.96369
upperback -6.1764 0.00825409 1.51078
thorax 3.41549 -0.0907581 3.27818
lowerneck -17.5122 8.05531 8.32308
upperneck 24.8251 9.35776 -2.21119
head 11.5109 4.67994 -0.765845
rclavicle -2.34504e-015 -5.56597e-015
rhumerus -39.6533 -4.58217 -73.0407
rradius 35.5489
rwrist -1.63851
rhand -11.9384 -14.355
rfingers 7.12502
rthumb 14.1164 -43.8555
lclavicle -2.34504e-015 -5.56597e-015
lhumerus -40.5155 2.36064 79.6378
lradius 35.5716
lwrist 37.5344
lhand -21.2055 2.71661
lfingers 7.12502
lthumb 5.17595 32.6334
rfemur -38.509 18.8788 14.5132
rtibia 37.5484
rfoot -16.7918 -25.4566
rtoes 0.150469
lfemur -23.8542 -13.5153 -18.3334
ltibia 13.9611
lfoot -6.56484 16.2861
ltoes -10.6364
1433
root 5.10934 15.5832 22.4429 22.3957 -73.8567 -0.95427
lowerback -17.8924 -0.0852951 -2.9781
upperback -6.15886 0.0378603 1.48732
thorax 3.40397 -0.0753673 3.26714
lowerneck -17.4796 8.09828 8.37472
upperneck 24.7591 9.41334 -2.238
head 11.4873 4.70748 -0.77649
rclavicle 6.74004e-016 -5.56597e-015
rhumerus -39.6171 -4.44869 -73.1945
rradius 35.7252
rwrist -1.71057
rhand -11.8639 -14.3242
rfingers 7.12502
rthumb 14.1882 -43.8196
lclavicle 6.74004e-016 -5.56597e-015
lhumerus -40.4484 2.29627 79.6698
lradius 35.7096
lwrist 37.5809
lhand -21.1825 2.72398
lfingers 7.12502
lthumb 5.19814 32.6402
rfemur -38.5488 18.852 14.5283
rtibia 37.5264
rfoot -16.6261 -25.5145
rtoes -0.303268
lfemur -23.9326 -13.512 -18.3105
ltibia 14.0188
lfoot -6.57382 16.2825
ltoes -10.6362
1434
root 5.11501 15.5831 22.4395 22.446 -73.851 -0.990643
lowerback -17.8406 -0.0663937 -3.00037
upperback -6.14001 0.0682554 1.46657
thorax 3.39445 -0.0595571 3.26362
lowerneck -17.4545 8.13778 8.42307
upperneck 24.6993 9.46402 -2.26356
head 11.467 4.7325 -0.78661
rclavicle -4.80624e-014 -6.36111e-015
rhumerus -39.5822 -4.32376 -73.3418
rradius 35.8865
rwrist -1.76843
rhand -11.7964 -14.3006
rfingers 7.12502
rthumb 14.2532 -43.7914
lclavicle -4.80624e-014 -6.36111e-015
lhumerus -40.3852 2.23731 79.6991
lradius 35.8394
lwrist 37.6244
lhand -21.1617 2.72886
lfingers 7.12502
lthumb 5.21826 32.6446
rfemur -38.5869 18.8303 14.5508
rtibia 37.4994
rfoot -16.424 -25.5886
rtoes -0.868
lfemur -24.0145 -13.4997 -18.2854
ltibia 14.0909
lfoot -6.5942 16.2779
ltoes -10.6322
1435
root 5.12029 15.5831 22.4355 22.5075 -73.8516 -1.04036
lowerback -17.7893 -0.0486437 -3.03254
upperback -6.11954 0.0986565 1.45033
thorax 3.38681 -0.0436835 3.27053
lowerneck -17.4378 8.17435 8.46712
upperneck 24.6459 9.51113 -2.28897
head 11.4504 4.75537 -0.796184
rclavicle -6.91895e-014 -1.15295e-014
rhumerus -39.548 -4.2041 -73.481
rradius 36.0335
rwrist -1.81527
rhand -11.7286 -14.2767
rfingers 7.12502
rthumb 14.3185 -43.763
lclavicle -6.91895e-014 -1.15295e-014
lhumerus -40.3265 2.18732 79.7275
lradius 35.9605
lwrist 37.6642
lhand -21.1476 2.72912
lfingers 7.12502
lthumb 5.23187 32.6445
rfemur -38.622 18.8216 14.5773
rtibia 37.4684
rfoot -16.2057 -25.6742
rtoes -1.47672
lfemur -24.0959 -13.4783 -18.2579
ltibia 14.1717
lfoot -6.62342 16.272
ltoes -10.6255
1436
root 5.12526 15.5831 22.4311 22.5759 -73.8568 -1.09913
lowerback -17.7376 -0.0325806 -3.07477
upperback -6.09745 0.128326 1.43931
thorax 3.38054 -0.0280925 3.28856
lowerneck -17.4303 8.20792 8.50519
upperneck 24.5992 9.55523 -2.31495
head 11.4376 4.77608 -0.80508
rclavicle -1.52195e-015 1.51076e-014
rhumerus -39.5147 -4.08343 -73.611
rradius 36.1678
rwrist -1.85743
rhand -11.6581 -14.2498
rfingers 7.12502
rthumb 14.3864 -43.7312
lclavicle -1.52195e-015 1.51076e-014
lhumerus -40.272 2.14789 79.7573
lradius 36.0722
lwrist 37.7001
lhand -21.1425 2.72409
lfingers 7.12502
lthumb 5.23672 32.6394
rfemur -38.6539 18.8316 14.6018
rtibia 37.4358
rfoot -16.0016 -25.7625
rtoes -2.0311
lfemur -24.1731 -13.4509 -18.2288
ltibia 14.2532
lfoot -6.65672 16.265
ltoes -10.6159
1437
root 5.13009 15.5833 22.4265 22.6447 -73.8637 -1.16003
lowerback -17.6846 -0.0180695 -3.12395
upperback -6.07381 0.156969 1.43209
thorax 3.37517 -0.0129459 3.31435
lowerneck -17.4324 8.23791 8.53668
upperneck 24.5589 9.59571 -2.34177
head 11.4285 4.79428 -0.813396
rclavicle 5.10504e-014 -3.18055e-015
rhumerus -39.4838 -3.95589 -73.7336
rradius 36.292
rwrist -1.90267
rhand -11.5869 -14.2213
rfingers 7.12502
rthumb 14.4551 -43.6978
lclavicle 5.10504e-014 -3.18055e-015
lhumerus -40.2211 2.11728 79.7895
lradius 36.1739
lwrist 37.7326
lhand -21.1476 2.71361
lfingers 7.12502
lthumb 5.23182 32.629
rfemur -38.6829 18.861 14.6196
rtibia 37.4044
rfoot -15.8342 -25.8466
rtoes -2.46224
lfemur -24.2434 -13.4221 -18.199
ltibia 14.3272
lfoot -6.68814 16.2577
ltoes -10.6049
1438
root 5.13499 15.5837 22.4221 22.7049 -73.8677 -1.21234
lowerback -17.6299 -0.00509432 -3.17512
upperback -6.04944 0.183853 1.42592
thorax 3.36978 0.00135786 3.34199
lowerneck -17.4434 8.26374 8.56147
upperneck 24.5249 9.63157 -2.36856
head 11.4229 4.80961 -0.820986
rclavicle 1.51201e-014 1.59028e-015
rhumerus -39.457 -3.81733 -73.8514
rradius 36.4084
rwrist -1.9571
rhand -11.5182 -14.1947
rfingers 7.12502
rthumb 14.5212 -43.6665
lclavicle 1.51201e-014 1.59028e-015
lhumerus -40.1732 2.09253 79.8238
lradius 36.2646
lwrist 37.7621
lhand -21.1625 2.69829
lfingers 7.12502
lthumb 5.21744 32.6141
rfemur -38.7111 18.9027 14.6271
rtibia 37.377
rfoot -15.7151 -25.9205
rtoes -2.73752
lfemur -24.3069 -13.3973 -18.1707
ltibia 14.3873
lfoot -6.71179 16.2498
ltoes -10.593
1439
root 5.1401 15.5842 22.4179 22.7516 -73.8663 -1.24994
lowerback -17.5745 0.00709121 -3.22348
upperback -6.02506 0.209272 1.41774
thorax 3.36407 0.0149138 3.36556
lowerneck -17.4613 8.28486 8.581
upperneck 24.4965 9.66156 -2.3946
head 11.4201 4.82175 -0.828115
rclavicle -1.98785e-014 -2.0276e-014
rhumerus -39.4363 -3.66841 -73.9672
rradius 36.5181
rwrist -2.0228
rhand -11.4561 -14.1739
rfingers 7.12502
rthumb 14.5811 -43.6414
lclavicle -1.98785e-014 -2.0276e-014
lhumerus -40.1279 2.0691 79.8587
lradius 36.3437
lwrist 37.7894
lhand -21.1823 2.68212
lfingers 7.12502
lthumb 5.19833 32.5984
rfemur -38.7404 18.9485 14.624
rtibia 37.355
rfoot -15.6412 -25.9821
rtoes -2.87128
lfemur -24.3648 -13.3805 -18.145
ltibia 14.4308
lfoot -6.72395 16.2427
ltoes -10.5847
1440
root 5.14542 15.5848 22.4142 22.7844 -73.8588 -1.27076
lowerback -17.5199 0.0190153 -3.26605
upperback -6.00174 0.233481 1.40574
thorax 3.35788 0.0278039 3.3815
lowerneck -17.4831 8.30118 8.59618
upperneck 24.4732 9.68511 -2.41861
head 11.4191 4.83075 -0.834676
rclavicle -4.21175e-015 0
rhumerus -39.4233 -3.51326 -74.0821
rradius 36.6207
rwrist -2.09675
rhand -11.4019 -14.1604
rfingers 7.12502
rthumb 14.6333 -43.624
lclavicle -4.21175e-015 0
lhumerus -40.0859 2.04441 79.8922
lradius 36.4102
lwrist 37.8147
lhand -21.2016 2.66883
lfingers 7.12502
lthumb 5.17969 32.5855
rfemur -38.7729 18.9922 14.6115
rtibia 37.3387
rfoot -15.6022 -26.0323
rtoes -2.89934
lfemur -24.4193 -13.3725 -18.1224
ltibia 14.4583
lfoot -6.72401 16.2367
ltoes -10.5808
1441
root 5.15088 15.5854 22.411 22.8074 -73.8458 -1.27796
lowerback -17.4685 0.0313217 -3.30092
upperback -5.98061 0.25702 1.38894
thorax 3.35111 0.040262 3.38779
lowerneck -17.5051 8.31298 8.60845
upperneck 24.4541 9.70217 -2.43947
head 11.4191 4.83689 -0.840667
rclavicle 4.62547e-014 -6.16232e-015
rhumerus -39.4192 -3.35919 -74.1956
rradius 36.7142
rwrist -2.17221
rhand -11.3548 -14.1536
rfingers 7.12502
rthumb 14.6787 -43.614
lclavicle 4.62547e-014 -6.16232e-015
lhumerus -40.0484 2.01599 79.9224
lradius 36.4631
lwrist 37.8377
lhand -21.2153 2.66244
lfingers 7.12502
lthumb 5.16644 32.5795
rfemur -38.8098 19.0296 14.5925
rtibia 37.3272
rfoot -15.5843 -26.0739
rtoes -2.8646
lfemur -24.4732 -13.3721 -18.1022
ltibia 14.4734
lfoot -6.71336 16.2319
ltoes -10.5851
1442
root 5.15634 15.586 22.4082 22.827 -73.8286 -1.27698
lowerback -17.4221 0.0438351 -3.32905
upperback -5.96272 0.279733 1.36867
thorax 3.34372 0.052206 3.38641
lowerneck -17.5242 8.32098 8.61847
upperneck 24.4393 9.71397 -2.4576
head 11.4195 4.84077 -0.846251
rclavicle 1.92014e-014 1.35174e-014
rhumerus -39.424 -3.21272 -74.3049
rradius 36.7958
rwrist -2.24072
rhand -11.3121 -14.1503
rfingers 7.12502
rthumb 14.7198 -43.6077
lclavicle 1.92014e-014 1.35174e-014
lhumerus -40.0169 1.98519 79.949
lradius 36.5015
lwrist 37.8572
lhand -21.2194 2.66495
lfingers 7.12502
lthumb 5.16249 32.5821
rfemur -38.8514 19.0613 14.5692
rtibia 37.319
rfoot -15.5778 -26.1102
rtoes -2.79674
lfemur -24.5288 -13.3769 -18.0831
ltibia 14.4804
lfoot -6.69502 16.228
ltoes -10.5973
